<?xml version="1.0" standalone="no"?>
<!DOCTYPE svg PUBLIC "-//W3C//DTD SVG 20010904//EN"
 "http://www.w3.org/TR/2001/REC-SVG-20010904/DTD/svg10.dtd">
<svg version="1.0" xmlns="http://www.w3.org/2000/svg"
 width="700.000000pt" height="700.000000pt" viewBox="0 0 700.000000 700.000000"
 preserveAspectRatio="xMidYMid meet">
<metadata>
Created by potrace 1.14, written by Peter Selinger 2001-2017
</metadata>
<g transform="translate(0.000000,700.000000) scale(0.100000,-0.100000)"
fill="#000000" stroke="none">
<path d="M2110 6123 c-329 -34 -520 -197 -614 -524 -38 -133 -46 -247 -56
-739 -13 -699 -39 -835 -188 -985 -83 -84 -204 -135 -347 -147 l-30 -3 0 -225
0 -225 71 -7 c214 -21 387 -169 439 -376 33 -131 47 -308 55 -732 9 -426 25
-653 55 -775 46 -183 182 -354 345 -433 118 -57 200 -73 428 -79 l192 -6 0
222 0 221 -117 0 c-165 0 -277 33 -334 98 -88 100 -99 182 -99 747 0 473 -13
591 -94 840 -70 216 -187 356 -389 465 l-77 42 58 30 c87 47 139 85 222 164
88 84 145 177 194 315 62 175 77 335 82 897 4 459 8 494 62 615 17 37 41 72
58 84 94 66 213 96 347 86 l87 -6 0 222 0 221 -157 -2 c-87 0 -174 -3 -193 -5z"/>
<path d="M4540 5911 l0 -221 108 2 c63 1 129 -3 162 -11 59 -15 144 -53 174
-80 28 -25 65 -104 88 -189 19 -70 20 -103 19 -372 -2 -292 9 -593 30 -783 13
-128 48 -249 106 -367 39 -79 61 -109 132 -180 85 -85 155 -138 246 -183 l47
-24 -78 -42 c-206 -111 -320 -249 -394 -476 -77 -237 -82 -285 -91 -865 -7
-523 -11 -565 -49 -640 -63 -124 -167 -171 -382 -171 l-118 1 0 -222 0 -221
193 6 c227 6 309 22 425 78 145 71 260 198 320 357 55 144 71 306 82 857 11
549 31 714 103 849 76 143 227 240 397 255 l65 6 3 155 c2 85 0 188 -3 228
l-7 72 -41 0 c-156 1 -338 113 -414 255 -75 143 -91 276 -103 860 -11 548 -19
643 -72 805 -62 193 -182 337 -343 411 -99 45 -191 60 -407 66 l-198 6 0 -222z"/>
</g>
</svg>
